<svg id="svg" version="1.1" width="400" height="398.00000000000006" viewBox="0 0 400 398.00000000000006" xmlns="http://www.w3.org/2000/svg" xmlns:xlink="http://www.w3.org/1999/xlink" ><g id="svgg"><path id="path0" d="M195.821 222.070 L 195.821 274.229 201.990 274.229 L 208.159 274.229 208.159 222.488 C 208.159 194.030,208.079 170.746,207.980 170.746 C 207.882 170.746,206.762 171.373,205.493 172.138 C 203.143 173.555,202.248 173.797,201.572 173.196 C 201.364 173.012,199.985 172.197,198.507 171.386 L 195.821 169.911 195.821 222.070 M86.368 221.660 C 82.420 227.891,81.991 226.938,91.520 233.126 C 95.995 236.033,99.756 238.563,99.878 238.749 C 100.000 238.935,104.219 241.738,109.254 244.978 C 114.289 248.218,122.975 253.861,128.557 257.519 C 142.749 266.819,154.838 274.627,155.044 274.627 C 155.139 274.627,158.040 276.468,161.489 278.719 C 164.939 280.970,168.411 283.210,169.205 283.696 L 170.648 284.581 172.588 281.718 C 173.655 280.143,174.706 278.560,174.925 278.201 C 175.144 277.842,175.726 276.935,176.217 276.187 C 177.667 273.980,177.545 273.829,170.701 269.413 C 167.174 267.136,163.417 264.692,162.353 263.980 C 161.288 263.269,160.336 262.687,160.237 262.687 C 159.966 262.687,116.448 234.386,116.219 234.061 C 115.989 233.734,112.632 231.439,112.040 231.203 C 111.821 231.116,108.239 228.793,104.080 226.041 C 93.725 219.189,90.133 216.912,89.711 216.932 C 89.514 216.942,88.010 219.069,86.368 221.660 M309.652 217.204 C 309.125 217.403,306.592 219.038,293.134 227.860 C 291.383 229.008,288.607 230.801,286.965 231.844 C 285.323 232.888,283.891 233.875,283.781 234.039 C 283.460 234.519,235.513 265.627,233.532 266.639 C 232.930 266.947,232.438 267.348,232.438 267.530 C 232.438 267.712,232.256 267.861,232.034 267.861 C 231.235 267.861,222.886 273.524,222.886 274.066 C 222.886 274.950,228.999 284.169,229.588 284.174 C 229.882 284.177,232.418 282.701,235.224 280.896 C 238.030 279.090,241.999 276.547,244.044 275.245 C 250.283 271.273,261.141 264.242,273.730 256.022 C 277.835 253.341,282.537 250.281,284.179 249.221 C 296.559 241.233,299.951 238.995,300.299 238.588 C 300.517 238.332,304.250 235.830,308.593 233.029 C 316.891 227.678,317.290 227.308,316.385 225.803 C 314.444 222.575,310.674 216.920,310.480 216.947 C 310.353 216.964,309.980 217.080,309.652 217.204 M165.373 306.410 C 147.993 313.894,144.478 315.509,144.478 316.005 C 144.478 316.343,146.352 320.836,148.003 324.456 C 148.472 325.484,148.856 326.513,148.856 326.744 C 148.856 327.601,166.061 320.922,169.751 318.633 C 170.189 318.361,174.040 316.656,178.308 314.845 C 187.685 310.864,187.039 311.424,185.775 308.367 C 185.208 306.994,184.167 304.483,183.463 302.786 C 181.851 298.902,183.641 298.543,165.373 306.410 M219.527 303.383 C 218.682 305.408,217.647 307.843,217.227 308.795 C 216.165 311.198,216.107 311.145,222.937 314.004 C 226.302 315.412,230.935 317.442,233.234 318.514 C 235.532 319.586,239.319 321.250,241.649 322.211 C 243.979 323.172,247.524 324.680,249.528 325.561 C 251.531 326.443,253.390 327.164,253.658 327.164 C 254.064 327.164,258.720 316.817,258.710 315.939 C 258.703 315.382,222.858 299.701,221.592 299.701 C 221.301 299.701,220.373 301.354,219.527 303.383 " stroke="none" fill="#249bf4" fill-rule="evenodd"></path><path id="path1" d="M94.193 20.363 C 94.049 26.309,93.930 39.473,93.930 49.617 L 93.930 68.060 115.819 68.060 L 137.707 68.060 137.809 102.783 L 137.910 137.505 146.070 142.048 C 162.691 151.301,176.125 158.906,176.318 159.170 C 176.749 159.759,195.261 170.069,195.821 170.031 C 196.149 170.010,197.862 170.732,199.627 171.637 L 202.835 173.283 205.294 171.789 C 206.646 170.968,207.930 170.405,208.146 170.539 C 208.487 170.750,226.727 159.959,227.264 159.229 C 227.373 159.080,230.328 157.246,233.831 155.153 C 237.333 153.059,245.527 148.158,252.040 144.261 L 263.881 137.175 263.881 102.618 L 263.881 68.060 283.980 68.060 L 304.080 68.060 304.080 49.617 C 304.080 39.473,303.961 26.309,303.817 20.363 L 303.554 9.552 199.005 9.552 L 94.456 9.552 94.193 20.363 M292.139 22.488 C 292.139 23.254,291.960 23.881,291.741 23.881 C 291.483 23.881,291.343 29.384,291.343 39.595 L 291.343 55.310 268.756 55.517 C 208.357 56.070,190.249 56.119,190.249 55.727 C 190.249 55.457,176.354 55.323,148.259 55.323 L 106.269 55.323 106.265 40.299 C 106.263 32.035,106.149 24.333,106.011 23.184 L 105.760 21.095 198.950 21.095 L 292.139 21.095 292.139 22.488 M251.534 98.806 L 251.527 129.552 249.445 130.785 C 240.165 136.278,215.672 151.155,206.441 156.903 C 202.036 159.646,202.875 159.673,197.811 156.629 C 190.703 152.356,168.513 139.760,151.946 130.595 L 150.061 129.552 150.055 98.806 L 150.050 68.060 200.796 68.060 L 251.542 68.060 251.534 98.806 M182.090 210.916 C 179.244 212.610,169.303 218.449,160.000 223.890 C 150.697 229.332,142.995 233.893,142.886 234.026 C 142.776 234.158,141.209 235.126,139.403 236.176 C 137.597 237.226,136.119 238.292,136.119 238.545 C 136.118 238.798,134.690 239.811,132.945 240.796 C 129.092 242.971,128.919 242.484,134.919 246.350 C 140.760 250.115,139.956 249.985,143.682 247.761 C 145.323 246.781,147.029 245.977,147.471 245.975 C 147.914 245.972,151.944 243.773,156.427 241.088 C 160.909 238.402,169.905 233.093,176.418 229.289 L 188.259 222.374 188.259 215.067 C 188.259 209.468,188.142 207.770,187.761 207.798 C 187.488 207.818,184.935 209.221,182.090 210.916 M216.608 219.090 L 216.716 226.531 225.946 231.972 C 231.023 234.964,235.679 237.722,236.295 238.100 C 245.622 243.833,250.683 246.758,251.283 246.762 C 251.688 246.764,253.485 247.629,255.276 248.683 L 258.534 250.601 263.845 247.144 L 269.156 243.687 265.921 241.748 C 264.142 240.682,262.687 239.603,262.687 239.350 C 262.687 239.098,260.851 237.786,258.607 236.436 C 256.363 235.085,252.378 232.681,249.751 231.093 C 241.267 225.965,217.783 212.142,217.132 211.892 C 216.566 211.675,216.511 212.428,216.608 219.090 M114.229 251.771 C 113.025 252.519,111.673 253.132,111.224 253.133 C 110.776 253.134,102.895 257.539,93.712 262.923 C 84.529 268.307,76.299 273.115,75.423 273.608 C 62.018 281.148,51.943 287.207,51.850 287.784 C 51.793 288.138,56.250 291.409,63.480 296.318 C 83.247 309.741,95.283 318.022,95.507 318.352 C 95.793 318.772,140.127 349.440,152.836 358.008 C 156.667 360.590,169.497 369.394,181.348 377.571 C 193.199 385.748,203.181 392.438,203.531 392.438 C 203.881 392.438,211.647 387.125,220.790 380.631 C 229.933 374.137,238.756 367.921,240.398 366.818 C 243.335 364.845,273.112 343.804,296.119 327.444 C 302.577 322.853,308.149 318.807,308.501 318.453 C 308.853 318.100,311.540 316.144,314.471 314.106 C 333.442 300.920,348.077 290.450,348.179 289.991 C 348.253 289.656,343.026 286.357,334.248 281.200 C 326.521 276.660,313.110 268.756,304.445 263.637 C 295.781 258.517,288.358 254.328,287.951 254.328 C 287.544 254.328,285.984 253.600,284.484 252.709 C 282.985 251.818,281.595 251.146,281.396 251.216 C 280.744 251.445,271.084 257.706,271.068 257.910 C 271.059 258.020,272.302 258.826,273.831 259.701 C 275.359 260.577,276.612 261.502,276.613 261.756 C 276.616 262.142,298.612 275.335,319.946 287.748 L 325.265 290.843 313.578 299.034 C 307.150 303.540,299.920 308.658,297.512 310.407 C 291.875 314.504,238.999 352.010,219.208 365.950 C 210.833 371.850,203.711 376.674,203.383 376.671 C 203.055 376.668,195.443 371.588,186.468 365.383 C 177.493 359.178,166.388 351.559,161.791 348.453 C 150.065 340.529,113.083 315.007,111.642 313.844 C 110.234 312.708,95.620 302.552,86.424 296.318 C 82.872 293.910,78.885 291.195,77.566 290.283 L 75.167 288.627 77.882 287.052 C 79.375 286.187,88.836 280.677,98.905 274.809 C 108.975 268.940,118.333 263.499,119.701 262.716 C 121.069 261.934,122.278 261.018,122.388 260.682 C 122.497 260.345,123.763 259.394,125.199 258.568 L 127.812 257.065 122.618 253.707 C 116.693 249.876,117.121 249.975,114.229 251.771 " stroke="none" fill="#040404" fill-rule="evenodd"></path><path id="path2" d="" stroke="none" fill="#0c2434" fill-rule="evenodd"></path><path id="path3" d="" stroke="none" fill="#145c8c" fill-rule="evenodd"></path><path id="path4" d="" stroke="none" fill="#141044" fill-rule="evenodd"></path></g></svg>